<svg xmlns="http://www.w3.org/2000/svg" xmlns:xlink="http://www.w3.org/1999/xlink" width="1920" zoomAndPan="magnify" viewBox="0 0 1440 809.999993" height="1080" preserveAspectRatio="xMidYMid meet" version="1.0"><defs><clipPath id="id1"><path d="M 333 497 L 454 497 L 454 798.097656 L 333 798.097656 Z M 333 497 " clip-rule="nonzero"/></clipPath><clipPath id="id2"><path d="M 489 468 L 610 468 L 610 798.097656 L 489 798.097656 Z M 489 468 " clip-rule="nonzero"/></clipPath><clipPath id="id3"><path d="M 645 355 L 766 355 L 766 798.097656 L 645 798.097656 Z M 645 355 " clip-rule="nonzero"/></clipPath><clipPath id="id4"><path d="M 802 322 L 923 322 L 923 798.097656 L 802 798.097656 Z M 802 322 " clip-rule="nonzero"/></clipPath><clipPath id="id5"><path d="M 958 186 L 1079 186 L 1079 798.097656 L 958 798.097656 Z M 958 186 " clip-rule="nonzero"/></clipPath></defs><g clip-path="url(#id1)"><path fill="#ffffff" d="M 421.445312 497.03125 C 420.609375 497.03125 419.441406 497.265625 418.371094 498.238281 L 333.605469 576.648438 L 333.605469 785.53125 C 333.605469 792.519531 339.257812 798.171875 346.246094 798.171875 L 440.941406 798.171875 C 447.894531 798.171875 453.578125 792.519531 453.578125 785.53125 L 453.578125 522.945312 L 424.355469 498.136719 C 423.320312 497.234375 422.179688 497.03125 421.445312 497.03125 " fill-opacity="1" fill-rule="nonzero"/></g><g clip-path="url(#id2)"><path fill="#ffffff" d="M 503.871094 552.941406 C 499.019531 552.941406 494.273438 552.070312 489.792969 550.433594 L 489.792969 785.53125 C 489.792969 792.519531 495.441406 798.171875 502.429688 798.171875 L 597.125 798.171875 C 604.082031 798.171875 609.765625 792.519531 609.765625 785.53125 L 609.765625 468.679688 L 531.757812 541.90625 C 524.199219 549.027344 514.269531 552.941406 503.871094 552.941406 " fill-opacity="1" fill-rule="nonzero"/></g><g clip-path="url(#id3)"><path fill="#ffffff" d="M 732.214844 355.359375 C 731.378906 355.359375 730.171875 355.59375 729.105469 356.59375 L 645.976562 434.671875 L 645.976562 785.53125 C 645.976562 792.519531 651.628906 798.171875 658.617188 798.171875 L 753.3125 798.171875 C 760.265625 798.171875 765.953125 792.519531 765.953125 785.53125 L 765.953125 385.015625 L 735.289062 356.5625 C 734.1875 355.59375 733.015625 355.359375 732.214844 355.359375 " fill-opacity="1" fill-rule="nonzero"/></g><g clip-path="url(#id4)"><path fill="#ffffff" d="M 807.347656 408.589844 C 805.609375 408.589844 803.871094 408.457031 802.164062 408.222656 L 802.164062 785.53125 C 802.164062 792.519531 807.816406 798.171875 814.804688 798.171875 L 909.5 798.171875 C 916.453125 798.171875 922.136719 792.519531 922.136719 785.53125 L 922.136719 322.019531 L 834.097656 398.59375 C 826.675781 405.046875 817.179688 408.589844 807.347656 408.589844 " fill-opacity="1" fill-rule="nonzero"/></g><g clip-path="url(#id5)"><path fill="#ffffff" d="M 958.351562 785.53125 C 958.351562 792.519531 964 798.171875 970.988281 798.171875 L 1065.683594 798.171875 C 1072.640625 798.171875 1078.324219 792.519531 1078.324219 785.53125 L 1078.324219 186.132812 L 958.351562 290.523438 L 958.351562 785.53125 " fill-opacity="1" fill-rule="nonzero"/></g><path fill="#ffffff" d="M 1182.316406 14.097656 L 1072.40625 26.667969 C 1054.351562 28.742188 1045.957031 50.140625 1057.792969 63.917969 L 1070.699219 78.964844 C 1078.792969 88.394531 1077.757812 102.605469 1068.359375 110.761719 L 823.164062 324.09375 C 814.4375 331.683594 801.394531 331.484375 792.9375 323.59375 L 747.394531 281.363281 C 738.667969 273.269531 725.191406 273.335938 716.496094 281.460938 L 517.878906 468.007812 C 509.453125 475.898438 496.480469 476.234375 487.71875 468.777344 L 434.820312 423.839844 C 426.09375 416.414062 413.1875 416.683594 404.792969 424.472656 L 239.210938 577.652344 C 230.015625 586.144531 229.449219 600.453125 237.941406 609.617188 C 246.433594 618.8125 260.777344 619.347656 269.941406 610.886719 L 406.066406 484.960938 C 414.457031 477.171875 427.363281 476.902344 436.089844 484.328125 L 489.222656 529.46875 C 497.984375 536.921875 510.992188 536.589844 519.382812 528.699219 L 716.699219 343.386719 C 725.359375 335.261719 738.867188 335.195312 747.59375 343.289062 L 791.933594 384.449219 C 800.425781 392.339844 813.464844 392.539062 822.195312 384.949219 L 1097.617188 145.335938 C 1107.082031 137.113281 1121.457031 138.148438 1129.652344 147.710938 L 1138.511719 158.042969 C 1150.316406 171.820312 1172.71875 166.769531 1177.53125 149.285156 L 1206.722656 42.550781 C 1210.96875 27.101562 1198.230469 12.257812 1182.316406 14.097656 " fill-opacity="1" fill-rule="nonzero"/></svg>